# xmcd
#
# Track frame offsets:
#	180
#	14501
#	34620
#	49201
#	68665
#	85140
#	102452
#	120315
#	136366
#	150060
#
# Disc length: 2261 seconds
#
# Revision: 1
# Processed by: cddbd v1.4PL0 Copyright (c) Steve Scherf et al.
# Submitted via: audiograbber 1.81.03
#
DISCID=7308d30a
DTITLE=Iron Horses - Iron Horses
DYEAR=1996
DGENRE=Country
TTITLE0=Ways of the South
TTITLE1=Never Knew Alone Could Be This Bad
TTITLE2=Hold On Baby
TTITLE3=Grain of Sand
TTITLE4=Country Boy
TTITLE5=Not My Idea of Fun
TTITLE6=You Still Got What It Takes
TTITLE7=Little Bits and Pieces
TTITLE8=Waltz to the Moon
TTITLE9=Before You Go
EXTD=
EXTT0=
EXTT1=
EXTT2=
EXTT3=
EXTT4=
EXTT5=
EXTT6=
EXTT7=
EXTT8=
EXTT9=
PLAYORDER=
